<svg id="Capa_1" enable-background="new 0 0 512 512" height="512" viewBox="0 0 512 512" width="512" xmlns="http://www.w3.org/2000/svg"><g><g><path d="m130.6 60.377c-1.099 0-2.202-.237-3.229-.717-30.515-14.258-29.84-47.581-29.796-48.993.131-4.211 3.656-7.542 7.862-7.389 4.202.13 7.505 3.634 7.391 7.832-.018.903-.177 17.385 11.915 28.641 2.964-12.23 10.873-29.952 31.971-39.118 3.865-1.678 8.36.093 10.038 3.958 1.679 3.865-.093 8.359-3.958 10.038-24.364 10.584-24.565 37.821-24.564 38.095.008 2.613-1.321 5.047-3.523 6.453-1.246.797-2.674 1.2-4.107 1.2z" fill="#af665a"/><g><path d="m37.746 172.169 11.925-11.764 9-15.164-8.91-15.118c-3.621-1.796-7.698-2.81-12.015-2.81-11.744 0-21.739 7.477-25.493 17.928 0 17.945 13.749 26.928 25.493 26.928z" fill="#ebbaa1"/><g><path d="m12.252 145.24c-1.027 2.86-1.59 5.942-1.59 9.156 0 14.958 12.126 27.084 27.084 27.084 4.28 0 8.326-.996 11.925-2.764l9-8.556-9-9.756c-3.599 1.768-7.645 2.764-11.925 2.764-11.744.001-21.739-7.476-25.494-17.928z" fill="#e8a990"/></g><path d="m223.455 172.169-11.925-11.764-9-15.164 8.91-15.118c3.621-1.796 7.698-2.81 12.015-2.81 11.744 0 21.739 7.477 25.493 17.928 0 17.945-13.749 26.928-25.493 26.928z" fill="#ebbaa1"/><g><path d="m248.948 145.24c1.027 2.86 1.59 5.942 1.59 9.156 0 14.958-12.126 27.084-27.084 27.084-4.28 0-8.326-.996-11.925-2.764l-9-8.556 9-9.756c3.599 1.768 7.645 2.764 11.925 2.764 11.745.001 21.74-7.476 25.494-17.928z" fill="#e8a990"/></g><path d="m130.6 250.403c44.696 0 80.93-31.274 80.93-89.93v-26.796c0-44.696-36.234-80.93-80.93-80.93-44.696 0-80.93 36.233-80.93 80.93v26.796c.001 60.507 36.234 89.93 80.93 89.93z" fill="#fdd4bb"/><path d="m130.6 241.403c-44.696 0-80.93-36.233-80.93-80.93v18.311c0 44.696 36.234 80.93 80.93 80.93 44.696 0 80.93-36.234 80.93-80.93v-18.311c0 44.696-36.233 80.93-80.93 80.93z" fill="#f7c4a8"/><path d="m65.109 60.667c0 62.782 48.312 8.024 48.312 8.024l9-8.024-9-8.024s-43.088-34.219-48.312 8.024z" fill="#ffa6d4"/><path d="m65.109 60.667c-.337 2.726-.52 5.763-.52 9.156 0 55.965 48.831 17.179 48.831 17.179l9-9.156-9-9.156c.001.001-43.087 34.22-48.311-8.023z" fill="#f690d2"/><path d="m196.091 60.667c0 62.782-48.312 8.024-48.312 8.024l-9-8.024 9-8.024c.001 0 43.088-34.219 48.312 8.024z" fill="#ffa6d4"/><path d="m196.091 60.667c.337 2.726.52 5.763.52 9.156 0 55.965-48.831 17.179-48.831 17.179l-9-9.156 9-9.156c0 .001 43.087 34.22 48.311-8.023z" fill="#f690d2"/><path d="m147.78 68.691-17.18 9-17.179-9v-16.048h34.359z" fill="#f68acc"/><path d="m113.421 68.691h34.359v18.311h-34.359z" fill="#dd7fbb"/></g><g><path d="m477.787 131.374s12.68-123.947-107.301-123.947-107.302 123.947-107.302 123.947z" fill="#af665a"/><path d="m301.468 220.924s-11.949-42.381-11.949-42.312v-.069c-.008.003-41.889 17.443-45.428 62.703.655.057 40.427 18.31 57.377-20.322z" fill="#af665a"/><path d="m244.087 241.247c-.341 4.361-.328 8.978.114 13.865.234 2.588 2.359 4.595 4.957 4.602 11.902.035 44.542-2.477 58.625-29.886l.001-.006c-.001.006.781-6.979.781-6.979l-7.097-1.919c-20.086 23.423-56.784 20.374-57.381 20.323z" fill="#a05c53"/><path d="m439.46 220.924s11.949-42.381 11.949-42.312v-.069c.008.003 41.889 17.443 45.428 62.703-.655.057-40.428 18.31-57.377-20.322z" fill="#af665a"/><path d="m496.84 241.247c.341 4.361.328 8.978-.114 13.865-.234 2.588-2.359 4.595-4.957 4.602-11.902.035-44.542-2.477-58.625-29.886l-.001-.006c.001.006-.781-6.979-.781-6.979l7.097-1.919c20.086 23.423 56.785 20.374 57.381 20.323z" fill="#a05c53"/><path d="m252.094 145.064c1.63 21.971 13.751 26.933 25.498 26.933l11.927-11.765 9-14.992-9-15.345c-3.6-1.768-7.646-2.765-11.927-2.765-11.747 0-21.744 7.479-25.498 17.934z" fill="#ebbaa1"/><path d="m252.094 145.064c-1.027 2.86-1.59 5.942-1.59 9.156 0 14.961 12.128 27.089 27.089 27.089 4.281 0 8.328-.997 11.927-2.765l9-8.383-9-9.928c-3.599 1.768-7.646 2.765-11.927 2.765-11.748-.001-21.745-7.479-25.499-17.934z" fill="#e8a990"/><path d="m488.834 145.064c-1.63 21.971-13.751 26.933-25.499 26.933l-11.927-11.765-9-14.992 9-15.345c3.6-1.768 7.646-2.765 11.927-2.765 11.747 0 21.744 7.479 25.499 17.934z" fill="#ebbaa1"/><path d="m488.834 145.064c1.027 2.86 1.59 5.942 1.59 9.156 0 14.961-12.128 27.089-27.089 27.089-4.281 0-8.328-.997-11.927-2.765l-9-8.383 9-9.928c3.599 1.768 7.646 2.765 11.927 2.765 11.747-.001 21.744-7.479 25.499-17.934z" fill="#e8a990"/><path d="m370.464 250.245c44.704 0 80.945-29.265 80.945-89.944v-30.406c-21.049-9.468-43.624-37.621-51.587-48.184-1.66-2.201-4.778-2.652-6.983-.999-13.958 10.458-61.928 44.357-103.318 49.183v30.406c-.002 60.476 36.238 89.944 80.943 89.944z" fill="#fdd4bb"/><path d="m370.464 241.245c-44.705 0-80.945-36.24-80.945-80.944v18.311c0 44.704 36.24 80.944 80.944 80.944 44.704 0 80.944-36.24 80.944-80.944v-18.311c.001 44.704-36.239 80.944-80.943 80.944z" fill="#f7c4a8"/></g><g><path d="m218.038 502.689c20.838 0 42.441-19.055 42.441-43.267h.002c-2.801-13.025-11.447-23.877-23.058-29.682l-25.857 1.159-20.268 53.563c0-.001 10.43 18.227 26.74 18.227z" fill="#e5907b"/><path d="m218.038 493.689c-10.091 0-19.37-3.451-26.741-9.228l-9.012-1.35v10.095c7.831 11.35 20.92 18.793 35.753 18.793 23.977 0 43.415-19.438 43.415-43.415 0-3.144-.339-6.209-.974-9.163-4.201 19.584-21.602 34.268-42.441 34.268z" fill="#d68474"/><g><path d="m237.945 383.661s12.68-123.947-107.301-123.947-107.302 123.947-107.302 123.947z" fill="#e5907b"/><path d="m248.992 397.35c-3.754-10.455-13.752-17.933-25.499-17.933-4.281 0-8.328.997-11.927 2.765l-9 15.168 9 15.169 11.927 11.765c11.747 0 25.499-8.812 25.499-26.934z" fill="#ebbaa1"/><path d="m223.493 415.284c-4.281 0-8.328-.997-11.927-2.765l-9 9.162 9 9.149c3.599 1.768 7.646 2.765 11.927 2.765 14.961 0 27.089-12.128 27.089-27.089 0-3.214-.563-6.295-1.59-9.156-3.755 10.455-13.752 17.934-25.499 17.934z" fill="#e8a990"/><path d="m12.251 397.35c3.754-10.455 13.752-17.933 25.499-17.933 4.281 0 8.328.997 11.927 2.765l9 15.168-9 15.169-11.927 11.765c-11.747 0-25.499-8.812-25.499-26.934z" fill="#ebbaa1"/><path d="m37.75 415.284c4.281 0 8.328-.997 11.927-2.765l9 9.162-9 9.149c-3.599 1.768-7.646 2.765-11.927 2.765-14.961 0-27.089-12.128-27.089-27.089 0-3.214.563-6.295 1.59-9.156 3.755 10.455 13.752 17.934 25.499 17.934z" fill="#e8a990"/><path d="m130.622 502.531c44.705 0 80.945-36.317 80.945-89.944v-30.406c-26.413-20.255-44.982-53.008-51.749-66.165-1.474-2.866-5.229-3.613-7.683-1.524-14.225 12.113-57.613 47.436-102.456 67.689v30.406c-.002 57.368 36.238 89.944 80.943 89.944z" fill="#fdd4bb"/><path d="m130.622 493.531c-44.705 0-80.945-36.24-80.945-80.944v18.311c0 44.704 36.24 80.944 80.944 80.944 44.704 0 80.944-36.24 80.944-80.944v-18.311c.001 44.705-36.239 80.944-80.943 80.944z" fill="#f7c4a8"/></g></g><g><path d="m457.924 502.689c20.838 0 42.441-16.978 42.441-43.267.001 0 .001 0 .002-.001-2.801-13.025-11.447-23.876-23.058-29.682l-25.858 1.09-20.268 53.632c4.405 12.94 16.65 18.228 26.741 18.228z" fill="#c1a19d"/><path d="m457.924 493.689c-10.091 0-19.37-3.451-26.741-9.228l-9.012-.092v8.838c7.832 11.35 20.92 18.793 35.753 18.793 23.977 0 43.415-19.438 43.415-43.415 0-3.144-.339-6.209-.974-9.163-4.202 19.583-21.603 34.267-42.441 34.267z" fill="#af9290"/><g><path d="m477.83 383.661s12.68-123.947-107.302-123.947-107.301 123.947-107.301 123.947z" fill="#c1a19d"/><path d="m488.877 397.35c0 20.559-15.126 26.933-25.499 26.933 0 0-11.927-11.765-11.927-11.765l-9-15.169 9-15.168c3.599-1.768 7.646-2.765 11.927-2.765 11.748.001 21.745 7.479 25.499 17.934z" fill="#ebbaa1"/><path d="m488.877 397.35c1.027 2.86 1.59 5.942 1.59 9.156 0 14.961-12.128 27.089-27.089 27.089-4.281 0-8.328-.997-11.927-2.765l-9-8.87 9-9.441c3.599 1.768 7.646 2.765 11.927 2.765 11.748 0 21.745-7.479 25.499-17.934z" fill="#e8a990"/><path d="m370.507 502.531c44.704 0 80.944-32.448 80.944-89.944v-30.406c-26.413-20.255-44.982-53.008-51.749-66.165-1.474-2.866-5.23-3.613-7.683-1.524-14.225 12.113-57.613 47.436-102.456 67.689v30.406c0 57.496 36.24 89.944 80.944 89.944z" fill="#fdd4bb"/><path d="m370.507 493.531c-44.705 0-80.945-36.24-80.945-80.944v18.311c0 44.704 36.24 80.944 80.945 80.944 44.704 0 80.944-36.24 80.944-80.944v-18.311c0 44.705-36.24 80.944-80.944 80.944z" fill="#f7c4a8"/><ellipse cx="323.191" cy="406.027" fill="#eef2f5" rx="33.672" ry="33.672" transform="matrix(.985 -.173 .173 .985 -65.486 62.166)"/><ellipse cx="417.823" cy="406.027" fill="#eef2f5" rx="33.672" ry="33.672" transform="matrix(.383 -.924 .924 .383 -117.191 636.665)"/><path d="m252.137 397.35c0 20.559 15.126 26.933 25.498 26.933 0 0 11.927-11.765 11.927-11.765l9-15.169-9-15.168c-3.599-1.768-7.646-2.765-11.927-2.765-11.747.001-21.744 7.479-25.498 17.934z" fill="#ebbaa1"/><path d="m252.137 397.35c-1.027 2.86-1.59 5.942-1.59 9.156 0 14.961 12.128 27.089 27.089 27.089 4.281 0 8.328-.997 11.927-2.765l9-8.87-9-9.441c-3.599 1.768-7.646 2.765-11.927 2.765-11.748 0-21.745-7.479-25.499-17.934z" fill="#e8a990"/><path d="m417.823 364.725c-20.166 0-36.992 14.532-40.583 33.672h-13.466c-3.591-19.14-20.417-33.672-40.583-33.672-22.774 0-41.301 18.528-41.301 41.301 0 22.774 18.528 41.301 41.301 41.301 20.166 0 36.992-14.532 40.583-33.672h13.466c3.591 19.14 20.417 33.672 40.583 33.672 22.774 0 41.301-18.528 41.301-41.301s-18.528-41.301-41.301-41.301zm-94.632 67.344c-14.359 0-26.042-11.683-26.042-26.042s11.683-26.042 26.042-26.042 26.042 11.683 26.042 26.042-11.683 26.042-26.042 26.042zm94.632 0c-14.359 0-26.042-11.683-26.042-26.042s11.683-26.042 26.042-26.042 26.042 11.683 26.042 26.042-11.683 26.042-26.042 26.042z" fill="#af665a"/></g></g></g><g><path d="m166.276 170.16c4.222 0 7.645-3.422 7.645-7.645v-13.133c0-4.223-3.423-7.645-7.645-7.645s-7.645 3.422-7.645 7.645v13.133c.001 4.223 3.424 7.645 7.645 7.645z" fill="#565d76"/><path d="m102.078 149.382c0-4.223-3.423-7.645-7.645-7.645s-7.645 3.422-7.645 7.645v13.133c0 4.222 3.423 7.645 7.645 7.645s7.645-3.422 7.645-7.645z" fill="#565d76"/><path d="m158.416 205.095c1.607-3.904-.255-8.372-4.159-9.98-3.907-1.606-8.372.256-9.98 4.159-.026.064-2.949 6.417-13.922 6.417s-13.897-6.354-13.922-6.417c-1.608-3.903-6.073-5.765-9.98-4.159-3.904 1.608-5.765 6.076-4.159 9.98 2.43 5.901 11.074 15.885 28.061 15.885s25.631-9.984 28.061-15.885z" fill="#f95750"/><path d="m406.616 169.958c4.222 0 7.645-3.422 7.645-7.645v-13.136c0-4.222-3.422-7.645-7.645-7.645s-7.645 3.422-7.645 7.645v13.136c.001 4.223 3.423 7.645 7.645 7.645z" fill="#565d76"/><path d="m334.76 169.958c4.223 0 7.645-3.422 7.645-7.645v-13.136c0-4.222-3.422-7.645-7.645-7.645-4.222 0-7.645 3.422-7.645 7.645v13.136c.001 4.223 3.423 7.645 7.645 7.645z" fill="#565d76"/><path d="m342.627 204.892c2.43 5.901 11.074 15.885 28.061 15.885s25.631-9.985 28.061-15.885c1.607-3.904-.255-8.372-4.159-9.98-3.907-1.607-8.372.256-9.98 4.159-.026.064-2.949 6.417-13.923 6.417-10.973 0-13.897-6.354-13.922-6.417-1.608-3.903-6.073-5.765-9.98-4.159-3.903 1.608-5.765 6.076-4.158 9.98z" fill="#f95750"/><path d="m166.305 394.313c-4.222 0-7.645 3.422-7.645 7.645v13.136c0 4.222 3.423 7.645 7.645 7.645s7.645-3.422 7.645-7.645v-13.136c-.001-4.223-3.423-7.645-7.645-7.645z" fill="#565d76"/><path d="m102.094 401.957c0-4.222-3.423-7.645-7.644-7.645-4.222 0-7.645 3.422-7.645 7.645v13.136c0 4.222 3.423 7.645 7.645 7.645s7.644-3.422 7.644-7.645z" fill="#565d76"/><path d="m151.46 446.913c-3.204 0-5.944 1.973-7.08 4.769l-.006-.003c-.321.675-3.435 6.588-13.996 6.588s-13.682-5.911-14.002-6.586c-1.137-2.796-3.876-4.769-7.08-4.769-4.222 0-7.645 3.423-7.645 7.645 0 1.111.242 2.164.669 3.117 2.431 5.901 11.075 15.883 28.059 15.883s25.628-9.982 28.059-15.883c.426-.953.669-2.005.669-3.117-.003-4.221-3.425-7.644-7.647-7.644z" fill="#f95750"/><path d="m416.507 394.313c-4.222 0-7.645 3.422-7.645 7.645v13.136c0 4.222 3.422 7.645 7.645 7.645 4.222 0 7.645-3.422 7.645-7.645v-13.136c0-4.223-3.422-7.645-7.645-7.645z" fill="#565d76"/><path d="m317.311 401.957v13.136c0 4.222 3.422 7.645 7.645 7.645 4.222 0 7.645-3.422 7.645-7.645v-13.136c0-4.222-3.422-7.645-7.645-7.645-4.223.001-7.645 3.423-7.645 7.645z" fill="#565d76"/><path d="m394.633 447.692c-3.907-1.608-8.372.256-9.98 4.159-.026.064-2.949 6.417-13.921 6.417s-13.896-6.353-13.921-6.417c-1.608-3.903-6.073-5.766-9.98-4.159-3.904 1.608-5.765 6.076-4.159 9.98 2.43 5.901 11.074 15.885 28.06 15.885s25.63-9.985 28.06-15.885c1.606-3.904-.255-8.372-4.159-9.98z" fill="#f95750"/></g></g></svg>