<svg height="512" viewBox="0 0 64 64" width="512" xmlns="http://www.w3.org/2000/svg"><g id="Captions"><g><g><path d="m8 12h48v40h-48z" fill="#dc9600" transform="matrix(0 1 -1 0 64 0)"/></g><g><path d="m51 46c0 .74.4 1.38 1 1.73v6.27c0-1.1-.9-2-2-2h-9c0-2.21 1.79-4 4-4 1.1 0 2-.9 2-2s-.9-2-2-2c-2.21 0-4-1.79-4-4v-6h-1c-.55 0-1-.45-1-1s.45-1 1-1h12v12.27c-.6.35-1 .99-1 1.73z" fill="#be7800"/></g><g><path d="m29.5-9.5h5v40h-5z" fill="#be7800" transform="matrix(0 1 -1 0 42.5 -21.5)"/></g><g><path d="m29.5 33.5h5v40h-5z" fill="#be7800" transform="matrix(0 1 -1 0 85.5 21.5)"/></g><g><path d="m12 10v-4c0-1.105.895-2 2-2h36c1.105 0 2 .895 2 2v4c0 1.105-.895 2-2 2h-36c-1.105 0-2-.895-2-2z" fill="#fab400"/></g><g><path d="m12 58v-4c0-1.105.895-2 2-2h36c1.105 0 2 .895 2 2v4c0 1.105-.895 2-2 2h-36c-1.105 0-2-.895-2-2z" fill="#fab400"/></g><g><path d="m56 8c0-1.105-.895-2-2-2h-2v4h2c1.105 0 2-.895 2-2z" fill="#c80a50"/></g><g><path d="m12 10v-4h-2c-1.105 0-2 .895-2 2 0 1.105.895 2 2 2z" fill="#c80a50"/></g><g><path d="m50.5 7.5h4v1h-4z" fill="#a00028" transform="matrix(0 1 -1 0 60.5 -44.5)"/></g><g><path d="m9.5 7.5h4v1h-4z" fill="#a00028" transform="matrix(0 1 -1 0 19.5 -3.5)"/></g><g><path d="m56 56c0-1.105-.895-2-2-2h-2v4h2c1.105 0 2-.895 2-2z" fill="#c80a50"/></g><g><path d="m12 58v-4h-2c-1.105 0-2 .895-2 2 0 1.105.895 2 2 2z" fill="#c80a50"/></g><g><path d="m50.5 55.5h4v1h-4z" fill="#a00028" transform="matrix(0 1 -1 0 108.5 3.5)"/></g><g><path d="m9.5 55.5h4v1h-4z" fill="#a00028" transform="matrix(0 1 -1 0 67.5 44.5)"/></g><g><g><circle cx="28" cy="28" fill="#fab400" r="12"/></g><g><g><path d="m36 35c0-1.657-1.343-3-3-3h-10c-1.657 0-3 1.343-3 3v1.943c2.123 1.9 4.926 3.057 8 3.057s5.877-1.156 8-3.057z" fill="#c80a50"/></g><g><path d="m28 34c-1.105 0-2-.895-2-2v-3h4v3c0 1.105-.895 2-2 2z" fill="#00648c"/></g><g><path d="m29 30h-2c-1.657 0-3-1.343-3-3v-3c0-1.105.895-2 2-2h4c1.105 0 2 .895 2 2v3c0 1.657-1.343 3-3 3z" fill="#0082aa"/></g><g><path d="m30 22h-4c-1.105 0-2 .895-2 2v-2c0-1.105.895-2 2-2h4c1.105 0 2 .895 2 2v2c0-1.105-.895-2-2-2z" fill="#0a5078"/></g></g></g><g><path d="m52 54v4c0 1.1-.9 2-2 2h-10c-.55 0-1-.45-1-1s.45-1 1-1h1v-6h9c1.1 0 2 .9 2 2z" fill="#dc9600"/></g><g><g><g><path d="m54 44c-1.105 0-2 .895-2 2h-4c0-1.105-.895-2-2-2-2.209 0-4-1.791-4-4v-6h16v6c0 2.209-1.791 4-4 4z" fill="#00a0c8"/></g><g><path d="m49.463 44c-.692-1.195-1.985-2-3.463-2-1.103 0-2-.897-2-2v-2.033h12v2.033c0 1.103-.897 2-2 2-1.478 0-2.771.805-3.463 2z" fill="#0082aa"/></g><g><path d="m54 48c-1.105 0-2-.895-2-2h-4c0 1.105-.895 2-2 2-2.209 0-4 1.791-4 4v6h16v-6c0-2.209-1.791-4-4-4z" fill="#00a0c8"/></g></g><g><path d="m59 34h-18c-.552 0-1-.448-1-1 0-.552.448-1 1-1h18c.552 0 1 .448 1 1 0 .552-.448 1-1 1z" fill="#0a5078"/></g><g><path d="m59 60h-18c-.552 0-1-.448-1-1 0-.552.448-1 1-1h18c.552 0 1 .448 1 1 0 .552-.448 1-1 1z" fill="#0a5078"/></g><g><path d="m49 42h2v16h-2z" fill="#0082aa"/></g></g><g><g><path d="m43 24h6c.552 0 1 .448 1 1 0 .552-.448 1-1 1h-6c-.552 0-1-.448-1-1 0-.552.448-1 1-1z" fill="#be7800"/></g><g><path d="m43 20h6c.552 0 1 .448 1 1 0 .552-.448 1-1 1h-6c-.552 0-1-.448-1-1 0-.552.448-1 1-1z" fill="#be7800"/></g><g><path d="m43 16h6c.552 0 1 .448 1 1 0 .552-.448 1-1 1h-6c-.552 0-1-.448-1-1 0-.552.448-1 1-1z" fill="#be7800"/></g><g><path d="m17 42h22c.552 0 1 .448 1 1 0 .552-.448 1-1 1h-22c-.552 0-1-.448-1-1 0-.552.448-1 1-1z" fill="#be7800"/></g><g><path d="m17 46h22c.552 0 1 .448 1 1 0 .552-.448 1-1 1h-22c-.552 0-1-.448-1-1 0-.552.448-1 1-1z" fill="#be7800"/></g><g><path d="m43 28h6c.552 0 1 .448 1 1 0 .552-.448 1-1 1h-6c-.552 0-1-.448-1-1 0-.552.448-1 1-1z" fill="#be7800"/></g></g></g></g></svg>