<svg id="Capa_1" enable-background="new 0 0 510 510" height="512" viewBox="0 0 510 510" width="512" xmlns="http://www.w3.org/2000/svg"><g><path d="m180 134.803v45l39.5 11.164 35.5-11.164 10.667-59.803-10.667-60.197c-41.355 0-75 33.644-75 75z" fill="#38617b"/><path d="m330 134.803c0-41.354-33.644-75-75-75v120l37.5 11.164 37.5-11.164c0-14.981 0-30.018 0-45z" fill="#2b495d"/><g><g><g><path d="m240 134.803v45l9.75 6.197 5.25-6.197 4.5-18.803-4.5-26.197c-5.246 0-9.754 0-15 0z" fill="#f3d652"/></g><g><path d="m270 134.803c-5.246 0-9.754 0-15 0v45l7.5 8.197 7.5-8.197c0-14.981 0-30.018 0-45z" fill="#e9bc3e"/></g></g></g><path d="m192.15 278.865c4.866-4.865 16.847-16.847 21.514-21.514l-1.095-20.118-20.119-1.095c-1.905 1.905-20.896 20.897-21.514 21.514-13.472-17.974-20.936-39.834-20.936-62.849 0-20.194 0-63.236 0-75-10.492 0-19.508 0-30 0v75c0 69.421 52.647 126.682 120 134.163v76.034l7.5 14.803 7.5-15 7.5-43.803-7.5-61.197c-23.052 0-44.906-7.486-62.85-20.938z" fill="#f1f1fa"/><path d="m270 328.966c67.372-7.482 120-64.759 120-134.163 0-20.194 0-63.236 0-75-10.492 0-19.508 0-30 0v75c0 22.977-7.444 44.847-20.938 62.849-.595-.595 1.865 1.865-21.517-21.516l-20.116 1.097-1.097 20.116c23.483 23.482 20.888 20.887 21.517 21.516-17.935 13.444-39.786 20.938-62.85 20.938v105l7.5 15 7.5-15c.001-18.731.001-63.481.001-75.837z" fill="#ded7f9"/><path d="m180 179.803v15c0 41.354 33.644 74.999 75 74.999l15-50.136-15-39.863c-20.194 0-63.236 0-75 0z" fill="#ded7f9"/><path d="m330 194.803c0-5.246 0-9.754 0-15-20.194 0-63.236 0-75 0v89.999c41.353.001 75-33.642 75-74.999z" fill="#b3bde5"/><path d="m210 404.803v60l23 10.697 22-10.697 18-30-18-30c-14.981 0-30.019 0-45 0z" fill="#38617b"/><path d="m300 404.803c-14.981 0-30.019 0-45 0v60l22.5 5.197 22.5-5.197c0-7.259 0-52.693 0-60z" fill="#2b495d"/><g><path d="m450 149.803h60c0-10.492 0-19.508 0-30-7.259 0-52.693 0-60 0z" fill="#ded7f9"/></g><g><g><path d="m418.181 211.984c4.796 4.796 37.664 37.665 42.426 42.426 7.419-7.419 13.794-13.794 21.213-21.213-4.796-4.796-37.664-37.665-42.426-42.426-7.419 7.419-13.794 13.794-21.213 21.213z" fill="#ded7f9"/></g></g><g><g><path d="m418.181 57.623c7.419 7.419 13.794 13.794 21.213 21.213 4.796-4.796 37.664-37.665 42.426-42.426-7.419-7.419-13.794-13.794-21.213-21.213-4.797 4.796-37.665 37.665-42.426 42.426z" fill="#ded7f9"/></g></g><g><g><path d="m0 119.803h60v30h-60z" fill="#f1f1fa"/></g></g><g><path d="m45 17.017h30v60h-30z" fill="#f1f1fa" transform="matrix(.707 -.707 .707 .707 -15.672 56.198)"/></g><g><path d="m30 207.591h60v30h-60z" fill="#f1f1fa" transform="matrix(.707 -.707 .707 .707 -139.822 107.622)"/></g><g><path d="m0 464.803v30h255l15-12.803-15-17.197c-7.193 0-247.807 0-255 0z" fill="#c47e4d"/><path d="m510 464.803c-7.193 0-247.807 0-255 0v30h255s0-19.508 0-30z" fill="#a05f4b"/></g></g></svg>